<svg width="24" height="24" viewBox="0 0 24 24" fill="none" xmlns="http://www.w3.org/2000/svg">
<g clip-path="url(#clip0_331_1130)">
<path d="M2.05001 10.3869C1.74413 10.3006 1.47395 10.1186 1.27907 9.8675C1.0842 9.61644 0.974891 9.30955 0.967174 8.99183C0.959458 8.67411 1.05374 8.36228 1.23619 8.10205C1.41865 7.84183 1.67968 7.64691 1.98101 7.54587L22.052 0.999871C22.1835 0.957011 22.3242 0.951286 22.4588 0.983326C22.5933 1.01537 22.7164 1.08393 22.8144 1.18145C22.9124 1.27898 22.9816 1.40168 23.0144 1.53603C23.0472 1.67038 23.0422 1.81117 23 1.94287L16.459 22.0239C16.3584 22.3257 16.1636 22.5873 15.9032 22.7702C15.6429 22.953 15.3307 23.0475 15.0126 23.0396C14.6945 23.0318 14.3874 22.9221 14.1363 22.7266C13.8853 22.5312 13.7036 22.2603 13.618 21.9539L11.372 12.6229L2.05001 10.3869Z" stroke="#AD8ACA" stroke-width="1.5" stroke-linecap="round" stroke-linejoin="round"/>
<path d="M22.815 1.18018L11.372 12.6232" stroke="#AD8ACA" stroke-width="1.5" stroke-linecap="round" stroke-linejoin="round"/>
</g>
<defs>
<clipPath id="clip0_331_1130">
<rect width="24" height="24" fill="white"/>
</clipPath>
</defs>
</svg>
