<svg width="24" height="24" viewBox="0 0 24 24" fill="none" xmlns="http://www.w3.org/2000/svg">
<g clip-path="url(#clip0_331_929)">
<path d="M11.711 18.7101L6.61095 13.6101C6.18395 13.183 5.94412 12.6038 5.94421 11.9998C5.94431 11.3958 6.18432 10.8166 6.61145 10.3896C7.03858 9.96265 7.61784 9.72281 8.2218 9.72291C8.82577 9.723 9.40495 9.96301 9.83195 10.3901L13.077 13.6341L19.153 5.53414C19.5154 5.05105 20.0549 4.73172 20.6527 4.64639C21.2506 4.56106 21.8579 4.71673 22.341 5.07914C22.824 5.44156 23.1434 5.98105 23.2287 6.57891C23.314 7.17678 23.1584 7.78405 22.796 8.26715L15.144 18.4671C14.9483 18.7284 14.6986 18.9446 14.4121 19.1009C14.1255 19.2572 13.8086 19.35 13.483 19.373C13.1573 19.3961 12.8306 19.3488 12.5248 19.2344C12.2191 19.1201 11.9415 18.9413 11.711 18.7101Z" stroke="#AD8ACA" stroke-width="1.5" stroke-linejoin="round"/>
<path d="M11.705 8.53723L13.958 5.53124C14.235 5.16242 14.6174 4.88632 15.0546 4.73938C15.4919 4.59244 15.9634 4.58158 16.407 4.70824" stroke="#AD8ACA" stroke-width="1.5" stroke-linecap="round" stroke-linejoin="round"/>
<path d="M8.89103 19.2459C8.48529 19.39 8.04697 19.4162 7.62695 19.3213C7.20693 19.2265 6.82242 19.0144 6.51803 18.7099L1.41803 13.6099C1.05237 13.2452 0.821561 12.767 0.763475 12.2538C0.705389 11.7406 0.82348 11.223 1.09837 10.7857C1.37326 10.3485 1.78861 10.0177 2.27626 9.84769C2.76391 9.67763 3.29488 9.6784 3.78203 9.84987" stroke="#AD8ACA" stroke-width="1.5" stroke-linecap="round" stroke-linejoin="round"/>
</g>
<defs>
<clipPath id="clip0_331_929">
<rect width="24" height="24" fill="white"/>
</clipPath>
</defs>
</svg>
