<svg width="137" height="137" viewBox="0 0 137 137" fill="none" xmlns="http://www.w3.org/2000/svg">
<path d="M17.125 72.7813C17.125 79.5279 18.4539 86.2085 21.0357 92.4416C23.6175 98.6747 27.4018 104.338 32.1724 109.109C36.943 113.879 42.6065 117.664 48.8396 120.246C55.0727 122.827 61.7533 124.156 68.5 124.156C75.2467 124.156 81.9273 122.827 88.1604 120.246C94.3935 117.664 100.057 113.879 104.828 109.109C109.598 104.338 113.382 98.6747 115.964 92.4416C118.546 86.2085 119.875 79.5279 119.875 72.7813C119.875 66.0346 118.546 59.354 115.964 53.1209C113.382 46.8878 109.598 41.2243 104.828 36.4536C100.057 31.683 94.3935 27.8988 88.1604 25.3169C81.9273 22.7351 75.2467 21.4063 68.5 21.4062C61.7533 21.4063 55.0727 22.7351 48.8396 25.3169C42.6065 27.8988 36.943 31.683 32.1724 36.4536C27.4018 41.2243 23.6175 46.8878 21.0357 53.1209C18.4539 59.354 17.125 66.0346 17.125 72.7813Z" stroke="#F1E7F9" stroke-width="4" stroke-linecap="round" stroke-linejoin="round"/>
<path d="M68.5 72.7812H49.1431" stroke="#F1E7F9" stroke-width="4" stroke-linecap="round" stroke-linejoin="round"/>
<path d="M68.5 42.8125V72.7812" stroke="#F1E7F9" stroke-width="4" stroke-linecap="round" stroke-linejoin="round"/>
</svg>
