<svg width="164" height="51" viewBox="0 0 164 51" fill="none" xmlns="http://www.w3.org/2000/svg">
<path d="M20.52 50.84C17.72 50.84 15.1 50.36 12.66 49.4C10.22 48.4 8.06 46.92 6.18 44.96C4.34 43 2.88 40.6 1.8 37.76C0.76 34.92 0.24 31.66 0.24 27.98C0.24 24.3 0.78 21.04 1.86 18.2C2.94 15.32 4.42 12.88 6.3 10.88C8.22 8.88 10.42 7.36 12.9 6.32C15.42 5.28 18.08 4.76 20.88 4.76C23.72 4.76 26.24 5.34 28.44 6.5C30.68 7.62 32.5 8.94 33.9 10.46L29.28 16.1C28.16 14.98 26.92 14.08 25.56 13.4C24.24 12.72 22.74 12.38 21.06 12.38C18.82 12.38 16.8 13 15 14.24C13.24 15.44 11.86 17.18 10.86 19.46C9.86 21.74 9.36 24.48 9.36 27.68C9.36 30.92 9.82 33.7 10.74 36.02C11.7 38.3 13.04 40.06 14.76 41.3C16.52 42.54 18.56 43.16 20.88 43.16C22.8 43.16 24.5 42.76 25.98 41.96C27.5 41.12 28.84 40.06 30 38.78L34.74 44.3C32.9 46.46 30.8 48.1 28.44 49.22C26.08 50.3 23.44 50.84 20.52 50.84ZM46.575 20.24V17.84H58.395V20.24H46.575ZM51.135 50.96C48.295 50.96 46.135 50.26 44.655 48.86C43.175 47.42 42.435 45.16 42.435 42.08C42.435 40.96 42.435 39.96 42.435 39.08C42.475 38.16 42.495 37.1 42.495 35.9V20.24H37.275V18.32L43.875 17.72L42.735 18.5L45.495 8.24H50.715L50.595 18.86V19.46V42.56C50.595 44.24 50.935 45.48 51.615 46.28C52.335 47.04 53.315 47.42 54.555 47.42C55.355 47.42 56.075 47.28 56.715 47C57.355 46.68 58.075 46.22 58.875 45.62L59.775 46.64C58.935 48.04 57.795 49.12 56.355 49.88C54.955 50.6 53.215 50.96 51.135 50.96ZM62.1497 50V48.2L68.6297 47.54H73.8497L80.4497 48.2V50H62.1497ZM66.4097 50C66.4897 49 66.5297 47.66 66.5297 45.98C66.5697 44.3 66.5897 42.56 66.5897 40.76C66.6297 38.92 66.6497 37.3 66.6497 35.9V31.4C66.6497 29.36 66.6297 27.68 66.5897 26.36C66.5497 25.04 66.4897 23.64 66.4097 22.16L61.7297 21.74V20.3L73.4897 17L74.2697 17.48L74.7497 26.06V26.12V35.9C74.7497 37.3 74.7497 38.92 74.7497 40.76C74.7897 42.56 74.8097 44.3 74.8097 45.98C74.8497 47.66 74.8897 49 74.9297 50H66.4097ZM74.6897 30.8L72.7097 27.14H74.3297C74.9297 24.94 75.7497 23.08 76.7897 21.56C77.8697 20.04 79.0697 18.88 80.3897 18.08C81.7497 17.28 83.0897 16.88 84.4097 16.88C85.7297 16.88 86.8897 17.18 87.8897 17.78C88.9297 18.38 89.5897 19.42 89.8697 20.9C89.8297 22.18 89.4897 23.24 88.8497 24.08C88.2097 24.88 87.2097 25.28 85.8497 25.28C84.8497 25.28 83.9897 25 83.2697 24.44C82.5497 23.88 81.8097 23.12 81.0497 22.16L79.6697 20.54L81.8297 20.9C80.1497 21.78 78.7297 23 77.5697 24.56C76.4497 26.08 75.4897 28.16 74.6897 30.8ZM90.8606 50V48.2L97.5206 47.6H101.301L108.321 48.2V50H90.8606ZM95.3606 50C95.4006 48.6 95.4206 47.1 95.4206 45.5C95.4606 43.9 95.4806 42.28 95.4806 40.64C95.5206 38.96 95.5406 37.38 95.5406 35.9V5.12L90.8606 4.82V3.2L102.981 0.859996L103.881 1.4L103.641 10.94V35.9C103.641 37.38 103.641 38.96 103.641 40.64C103.681 42.28 103.721 43.9 103.761 45.5C103.801 47.1 103.841 48.6 103.881 50H95.3606ZM146.423 50.84C143.663 50.84 141.223 50.46 139.103 49.7C136.983 48.9 135.163 47.66 133.643 45.98C132.163 44.3 131.043 42.14 130.283 39.5C129.523 36.86 129.143 33.7 129.143 30.02V5.54H137.963V30.8C137.963 33.88 138.303 36.32 138.983 38.12C139.663 39.92 140.623 41.22 141.863 42.02C143.143 42.78 144.663 43.16 146.423 43.16C148.183 43.16 149.703 42.78 150.983 42.02C152.263 41.22 153.243 39.92 153.923 38.12C154.643 36.32 155.003 33.88 155.003 30.8V5.54H163.523V30.02C163.523 33.7 163.143 36.86 162.383 39.5C161.623 42.14 160.503 44.3 159.023 45.98C157.543 47.66 155.743 48.9 153.623 49.7C151.503 50.46 149.103 50.84 146.423 50.84Z" fill="black"/>
</svg>
