<svg width="14" height="14" viewBox="0 0 14 14" fill="none" xmlns="http://www.w3.org/2000/svg">
<g clip-path="url(#clip0_722_1153)">
<path d="M13.0499 3.41072L4.69716 11.7629L2.22266 9.28839L10.5089 1.00505C10.8034 0.697035 11.1968 0.502462 11.6204 0.455428C12.0439 0.408393 12.4705 0.511897 12.8253 0.747804C13.0327 0.895177 13.2054 1.08599 13.3315 1.30694C13.4576 1.52789 13.5339 1.77367 13.5553 2.02717C13.5767 2.28066 13.5426 2.53576 13.4553 2.77471C13.368 3.01366 13.2297 3.2307 13.0499 3.41072Z" stroke="white" stroke-linecap="round" stroke-linejoin="round"/>
<path d="M10.5688 0.944546C10.2401 0.619025 9.79591 0.4369 9.3333 0.437993C8.87069 0.439086 8.42733 0.623309 8.10017 0.950379L6.24167 2.80655M8.40933 3.10113L10.8844 5.57621M0.4375 13.5626L2.2225 9.28855L4.697 11.763L0.4375 13.5626Z" stroke="white" stroke-linecap="round" stroke-linejoin="round"/>
</g>
<defs>
<clipPath id="clip0_722_1153">
<rect width="14" height="14" fill="white"/>
</clipPath>
</defs>
</svg>
