<svg width="24" height="24" viewBox="0 0 24 24" fill="none" xmlns="http://www.w3.org/2000/svg">
<path d="M1.75098 6.36795L22.292 2.00195" stroke="#832CC5" stroke-width="1.5" stroke-linecap="round" stroke-linejoin="round"/>
<path d="M13.6 0.782932L9.20005 1.71793C9.00683 1.75857 8.82354 1.83696 8.66068 1.94859C8.49783 2.06023 8.35861 2.20292 8.25103 2.36848C8.14344 2.53404 8.0696 2.71921 8.03374 2.91337C7.99788 3.10753 8.0007 3.30686 8.04205 3.49993L8.35405 4.96793L15.69 3.40793L15.378 1.94093C15.3374 1.74813 15.2591 1.56522 15.1478 1.40267C15.0364 1.24012 14.8941 1.1011 14.729 0.993566C14.5638 0.886029 14.3792 0.812076 14.1855 0.775935C13.9918 0.739794 13.7928 0.742171 13.6 0.782932Z" stroke="#832CC5" stroke-width="1.5" stroke-linecap="round" stroke-linejoin="round"/>
<path d="M10.751 18V10.5" stroke="#832CC5" stroke-width="1.5" stroke-linecap="round" stroke-linejoin="round"/>
<path d="M15.251 18V10.5" stroke="#832CC5" stroke-width="1.5" stroke-linecap="round" stroke-linejoin="round"/>
<path d="M18.6261 6H21.2511L19.8661 21.874C19.8349 22.25 19.6632 22.6004 19.3852 22.8554C19.1072 23.1104 18.7433 23.2513 18.3661 23.25H7.6311C7.25489 23.2498 6.89249 23.1082 6.61577 22.8533C6.33905 22.5985 6.1682 22.2489 6.1371 21.874L5.1001 9.377" stroke="#832CC5" stroke-width="1.5" stroke-linecap="round" stroke-linejoin="round"/>
</svg>
