<svg width="30" height="30" viewBox="0 0 30 30" fill="none" xmlns="http://www.w3.org/2000/svg">
<path d="M6.5625 17.8101V23.4351H0.9375" stroke="white" stroke-width="1.5" stroke-linecap="round" stroke-linejoin="round"/>
<path d="M23.4375 12.1851V6.56006H29.0625" stroke="white" stroke-width="1.5" stroke-linecap="round" stroke-linejoin="round"/>
<path d="M23.79 6.55615C25.7296 8.57687 26.9142 11.2039 27.1444 13.9954C27.3747 16.7869 26.6366 19.5725 25.0543 21.8837C23.472 24.1949 21.1421 25.8907 18.4564 26.6859C15.7706 27.4811 12.893 27.3271 10.3075 26.2499" stroke="white" stroke-width="1.5" stroke-linecap="round" stroke-linejoin="round"/>
<path d="M6.20876 23.4386C4.27336 21.4168 3.09253 18.7907 2.86454 16.0012C2.63655 13.2118 3.37529 10.4288 4.95672 8.1196C6.53815 5.81042 8.86595 4.11569 11.5492 3.31998C14.2325 2.52427 17.1079 2.67605 19.6925 3.74982" stroke="white" stroke-width="1.5" stroke-linecap="round" stroke-linejoin="round"/>
</svg>
