<svg width="24" height="24" viewBox="0 0 24 24" fill="none" xmlns="http://www.w3.org/2000/svg">
<g clip-path="url(#clip0_331_1311)">
<path d="M10.546 2.43804C10.7295 2.64173 10.9538 2.8046 11.2043 2.91609C11.4547 3.02757 11.7258 3.08518 12 3.08518C12.2742 3.08518 12.5453 3.02757 12.7958 2.91609C13.0462 2.8046 13.2705 2.64173 13.454 2.43804L14.4 1.40004C14.6711 1.09998 15.0285 0.891177 15.423 0.802295C15.8175 0.713414 16.2299 0.748806 16.6035 0.903615C16.9771 1.05842 17.2936 1.32506 17.5096 1.66693C17.7257 2.0088 17.8306 2.40915 17.81 2.81304L17.739 4.21303C17.7253 4.48614 17.7689 4.7591 17.8671 5.01432C17.9653 5.26954 18.1158 5.50137 18.309 5.69487C18.5022 5.88837 18.7338 6.03925 18.9889 6.1378C19.244 6.23634 19.5169 6.28037 19.79 6.26704L21.19 6.19604C21.5936 6.17614 21.9935 6.28155 22.3349 6.49782C22.6763 6.7141 22.9424 7.03065 23.0968 7.4041C23.2512 7.77755 23.2864 8.18961 23.1974 8.58382C23.1085 8.97802 22.8998 9.33507 22.6 9.60604L21.558 10.546C21.3546 10.7298 21.1919 10.9542 21.0806 11.2047C20.9693 11.4553 20.9118 11.7264 20.9118 12.0005C20.9118 12.2747 20.9693 12.5458 21.0806 12.7963C21.1919 13.0469 21.3546 13.2713 21.558 13.455L22.6 14.395C22.9001 14.6662 23.1089 15.0235 23.1978 15.418C23.2866 15.8125 23.2512 16.2249 23.0964 16.5985C22.9416 16.9721 22.675 17.2886 22.3331 17.5046C21.9912 17.7207 21.5909 17.8256 21.187 17.805L19.787 17.734C19.5133 17.72 19.2397 17.7635 18.9839 17.8618C18.728 17.9602 18.4957 18.1111 18.3019 18.3049C18.1081 18.4987 17.9572 18.7311 17.8588 18.9869C17.7605 19.2427 17.7169 19.5163 17.731 19.79L17.802 21.19C17.8199 21.5919 17.7137 21.9895 17.4977 22.3289C17.2818 22.6683 16.9666 22.9329 16.595 23.0869C16.2234 23.241 15.8134 23.2768 15.4207 23.1897C15.028 23.1026 14.6716 22.8967 14.4 22.6L13.459 21.559C13.2753 21.3556 13.051 21.193 12.8006 21.0817C12.5501 20.9704 12.2791 20.9129 12.005 20.9129C11.7309 20.9129 11.4599 20.9704 11.2095 21.0817C10.959 21.193 10.7347 21.3556 10.551 21.559L9.60601 22.6C9.33482 22.8981 8.9783 23.1053 8.58506 23.1934C8.19181 23.2814 7.78097 23.2461 7.40855 23.0921C7.03613 22.9382 6.72026 22.6731 6.50398 22.3331C6.28771 21.9931 6.18156 21.5946 6.20001 21.192L6.27201 19.792C6.28609 19.5183 6.24255 19.2447 6.14421 18.9889C6.04586 18.7331 5.89491 18.5007 5.70111 18.3069C5.50731 18.1131 5.27498 17.9622 5.01916 17.8638C4.76334 17.7655 4.48972 17.722 4.21601 17.736L2.81601 17.807C2.41229 17.8281 2.01195 17.7237 1.66995 17.5081C1.32794 17.2926 1.06104 16.9765 0.905893 16.6032C0.750741 16.2298 0.714943 15.8177 0.803414 15.4232C0.891885 15.0287 1.10029 14.6713 1.40001 14.4L2.44101 13.46C2.64446 13.2763 2.80709 13.0519 2.9184 12.8013C3.02971 12.5508 3.08723 12.2797 3.08723 12.0055C3.08723 11.7314 3.02971 11.4603 2.9184 11.2097C2.80709 10.9592 2.64446 10.7348 2.44101 10.551L1.40001 9.60604C1.10126 9.33504 0.893494 8.97839 0.805112 8.58484C0.71673 8.19129 0.752046 7.78005 0.906233 7.40733C1.06042 7.03461 1.32595 6.71861 1.66653 6.50251C2.00711 6.28642 2.40612 6.18078 2.80901 6.20004L4.20901 6.27104C4.48324 6.28545 4.75743 6.24203 5.01379 6.14357C5.27014 6.04512 5.50292 5.89385 5.697 5.69958C5.89108 5.50531 6.04213 5.27238 6.14033 5.01594C6.23853 4.75949 6.28169 4.48525 6.26701 4.21104L6.20001 2.81003C6.18112 2.4073 6.28694 2.00854 6.50305 1.66818C6.71916 1.32781 7.03503 1.06241 7.40755 0.908198C7.78007 0.753984 8.1911 0.718465 8.58455 0.806488C8.978 0.89451 9.33471 1.10179 9.60601 1.40004L10.546 2.43804Z" stroke="#AD8ACA" stroke-width="1.5" stroke-linecap="round" stroke-linejoin="round"/>
<path d="M7.5 12.001C7.5 13.1945 7.97411 14.339 8.81802 15.183C9.66193 16.0269 10.8065 16.501 12 16.501C13.1935 16.501 14.3381 16.0269 15.182 15.183C16.0259 14.339 16.5 13.1945 16.5 12.001C16.5 10.8075 16.0259 9.66291 15.182 8.819C14.3381 7.97508 13.1935 7.50098 12 7.50098C10.8065 7.50098 9.66193 7.97508 8.81802 8.819C7.97411 9.66291 7.5 10.8075 7.5 12.001Z" stroke="#AD8ACA" stroke-width="1.5" stroke-linecap="round" stroke-linejoin="round"/>
</g>
<defs>
<clipPath id="clip0_331_1311">
<rect width="24" height="24" fill="white"/>
</clipPath>
</defs>
</svg>
