<svg width="91" height="91" viewBox="0 0 91 91" fill="none" xmlns="http://www.w3.org/2000/svg">
<g filter="url(#filter0_d_331_1354)">
<circle cx="43.5" cy="37.5" r="35.5" fill="#832CC5"/>
</g>
<g clip-path="url(#clip0_331_1354)">
<path d="M57.0625 46.4375V50.1875C57.0625 51.1875 56.1875 52.0625 55.1875 52.0625H51.4375" stroke="white" stroke-width="1.5" stroke-miterlimit="10" stroke-linecap="round" stroke-linejoin="round"/>
<path d="M51.4375 23.9375H55.1875C56.1875 23.9375 57.0625 24.8125 57.0625 25.8125V29.5625" stroke="white" stroke-width="1.5" stroke-miterlimit="10" stroke-linecap="round" stroke-linejoin="round"/>
<path d="M28.9375 29.5625V25.8125C28.9375 24.8125 29.8125 23.9375 30.8125 23.9375H34.5625" stroke="white" stroke-width="1.5" stroke-miterlimit="10" stroke-linecap="round" stroke-linejoin="round"/>
<path d="M34.5625 52.0625H30.8125C29.8125 52.0625 28.9375 51.1875 28.9375 50.1875V46.4375" stroke="white" stroke-width="1.5" stroke-miterlimit="10" stroke-linecap="round" stroke-linejoin="round"/>
<path d="M47.3124 32.9375L46.3124 29.8125H39.4374L38.4374 32.9375H35.6874C34.6874 32.9375 33.8124 33.8125 33.8124 34.8125V42.5624C33.8124 43.5624 34.6874 44.4374 35.6874 44.4374H50.0624C51.0624 44.4374 51.9374 43.5624 51.9374 42.5624V34.8125C51.9374 33.8125 51.0624 32.9375 50.0624 32.9375H47.3124Z" stroke="white" stroke-width="1.5" stroke-miterlimit="10" stroke-linecap="round" stroke-linejoin="round"/>
<path d="M42.9375 41.1874C44.5944 41.1874 45.9375 39.8443 45.9375 38.1874C45.9375 36.5305 44.5944 35.1875 42.9375 35.1875C41.2807 35.1875 39.9376 36.5305 39.9376 38.1874C39.9376 39.8443 41.2807 41.1874 42.9375 41.1874Z" stroke="white" stroke-width="1.5" stroke-miterlimit="10" stroke-linecap="round" stroke-linejoin="round"/>
</g>
<defs>
<filter id="filter0_d_331_1354" x="0" y="0" width="91" height="91" filterUnits="userSpaceOnUse" color-interpolation-filters="sRGB">
<feFlood flood-opacity="0" result="BackgroundImageFix"/>
<feColorMatrix in="SourceAlpha" type="matrix" values="0 0 0 0 0 0 0 0 0 0 0 0 0 0 0 0 0 0 127 0" result="hardAlpha"/>
<feMorphology radius="2" operator="dilate" in="SourceAlpha" result="effect1_dropShadow_331_1354"/>
<feOffset dx="2" dy="8"/>
<feGaussianBlur stdDeviation="4"/>
<feComposite in2="hardAlpha" operator="out"/>
<feColorMatrix type="matrix" values="0 0 0 0 0.440712 0 0 0 0 0.379577 0 0 0 0 0.490385 0 0 0 0.2 0"/>
<feBlend mode="normal" in2="BackgroundImageFix" result="effect1_dropShadow_331_1354"/>
<feBlend mode="normal" in="SourceGraphic" in2="effect1_dropShadow_331_1354" result="shape"/>
</filter>
<clipPath id="clip0_331_1354">
<rect width="30" height="30" fill="white" transform="translate(28 23)"/>
</clipPath>
</defs>
</svg>
