<svg width="27" height="27" viewBox="0 0 27 27" fill="none" xmlns="http://www.w3.org/2000/svg">
<g clip-path="url(#clip0_513_826)">
<path d="M12.6562 20.25C12.6562 20.9213 12.9229 21.5652 13.3976 22.0399C13.8723 22.5146 14.5162 22.7812 15.1875 22.7812C15.8588 22.7812 16.5027 22.5146 16.9774 22.0399C17.4521 21.5652 17.7188 20.9213 17.7188 20.25C17.7188 19.5787 17.4521 18.9348 16.9774 18.4601C16.5027 17.9854 15.8588 17.7188 15.1875 17.7188C14.5162 17.7188 13.8723 17.9854 13.3976 18.4601C12.9229 18.9348 12.6562 19.5787 12.6562 20.25Z" fill="#AD8ACA" stroke="#AD8ACA" stroke-width="1.5" stroke-linecap="round" stroke-linejoin="round"/>
<path d="M21.0938 23.625C21.0937 24.2963 21.3604 24.9402 21.8351 25.4149C22.3098 25.8896 22.9537 26.1562 23.625 26.1562C24.2963 26.1562 24.9402 25.8896 25.4149 25.4149C25.8896 24.9402 26.1562 24.2963 26.1562 23.625C26.1562 22.9537 25.8896 22.3098 25.4149 21.8351C24.9402 21.3604 24.2963 21.0938 23.625 21.0938C22.9537 21.0938 22.3098 21.3604 21.8351 21.8351C21.3604 22.3098 21.0938 22.9537 21.0938 23.625Z" fill="#AD8ACA" stroke="#AD8ACA" stroke-width="1.5" stroke-linecap="round" stroke-linejoin="round"/>
<path d="M21.0938 15.1875C21.0937 15.8588 21.3604 16.5027 21.8351 16.9774C22.3098 17.4521 22.9537 17.7188 23.625 17.7188C24.2963 17.7188 24.9402 17.4521 25.4149 16.9774C25.8896 16.5027 26.1562 15.8588 26.1562 15.1875C26.1562 14.5162 25.8896 13.8723 25.4149 13.3976C24.9402 12.9229 24.2963 12.6562 23.625 12.6562C22.9537 12.6562 22.3098 12.9229 21.8351 13.3976C21.3604 13.8723 21.0938 14.5162 21.0938 15.1875Z" fill="#AD8ACA" stroke="#AD8ACA" stroke-width="1.5" stroke-linecap="round" stroke-linejoin="round"/>
<path d="M17.353 18.9506L21.4593 16.4868" stroke="#AD8ACA" stroke-width="1.5" stroke-linecap="round" stroke-linejoin="round"/>
<path d="M17.5366 21.1895L21.2761 22.6857" stroke="#AD8ACA" stroke-width="1.5" stroke-linecap="round" stroke-linejoin="round"/>
<path d="M9.28125 22.7812H2.53125C2.30813 22.7868 2.08621 22.747 1.87896 22.6641C1.67171 22.5813 1.48346 22.4572 1.32564 22.2994C1.16782 22.1415 1.04372 21.9533 0.960881 21.746C0.878044 21.5388 0.838194 21.3169 0.843751 21.0937V4.33912C0.828264 3.87574 0.997246 3.42513 1.31362 3.0862C1.62998 2.74726 2.0679 2.54768 2.53125 2.53125H19.4063C19.8696 2.54768 20.3075 2.74726 20.6239 3.0862C20.9403 3.42513 21.1092 3.87574 21.0938 4.33912V9.28125" stroke="#AD8ACA" stroke-width="1.5" stroke-linecap="round" stroke-linejoin="round"/>
<path d="M5.90625 0.84375V5.90625" stroke="#AD8ACA" stroke-width="1.5" stroke-linecap="round" stroke-linejoin="round"/>
<path d="M10.9688 0.84375V5.90625" stroke="#AD8ACA" stroke-width="1.5" stroke-linecap="round" stroke-linejoin="round"/>
<path d="M16.0312 0.84375V5.90625" stroke="#AD8ACA" stroke-width="1.5" stroke-linecap="round" stroke-linejoin="round"/>
</g>
<defs>
<clipPath id="clip0_513_826">
<rect width="27" height="27" fill="white"/>
</clipPath>
</defs>
</svg>
