<svg width="27" height="27" viewBox="0 0 27 27" fill="none" xmlns="http://www.w3.org/2000/svg">
<path d="M23.625 26.1562H5.90625C5.23492 26.1562 4.59109 25.8896 4.11639 25.4149C3.64168 24.9402 3.375 24.2963 3.375 23.625" stroke="#AD8ACA" stroke-width="1.5" stroke-linecap="round" stroke-linejoin="round"/>
<path d="M6.75 0.84375C5.85489 0.84375 4.99645 1.19933 4.36351 1.83226C3.73058 2.4652 3.375 3.32364 3.375 4.21875V23.625C3.375 22.9537 3.64168 22.3098 4.11639 21.8351C4.59109 21.3604 5.23492 21.0938 5.90625 21.0938H22.7812C23.005 21.0938 23.2196 21.0049 23.3779 20.8466C23.5361 20.6884 23.625 20.4738 23.625 20.25V1.6875C23.625 1.46372 23.5361 1.24911 23.3779 1.09088C23.2196 0.932645 23.005 0.84375 22.7812 0.84375H6.75Z" stroke="#AD8ACA" stroke-width="1.5" stroke-linecap="round" stroke-linejoin="round"/>
<path d="M21.9375 26.1562V21.0938" stroke="#AD8ACA" stroke-width="1.5" stroke-linecap="round" stroke-linejoin="round"/>
<path d="M8.4375 17.7188C8.4375 16.3761 8.97087 15.0884 9.92027 14.139C10.8697 13.1896 12.1573 12.6563 13.5 12.6562C14.8427 12.6563 16.1303 13.1896 17.0797 14.139C18.0291 15.0884 18.5625 16.3761 18.5625 17.7188H8.4375Z" fill="#AD8ACA" stroke="#AD8ACA" stroke-width="1.5" stroke-linecap="round" stroke-linejoin="round"/>
<path d="M10.125 9.28125C10.125 10.1764 10.4806 11.0348 11.1135 11.6677C11.7464 12.3007 12.6049 12.6562 13.5 12.6562C14.3951 12.6562 15.2536 12.3007 15.8865 11.6677C16.5194 11.0348 16.875 10.1764 16.875 9.28125C16.875 8.38614 16.5194 7.5277 15.8865 6.89476C15.2536 6.26183 14.3951 5.90625 13.5 5.90625C12.6049 5.90625 11.7464 6.26183 11.1135 6.89476C10.4806 7.5277 10.125 8.38614 10.125 9.28125Z" fill="#AD8ACA" stroke="#AD8ACA" stroke-width="1.5" stroke-linecap="round" stroke-linejoin="round"/>
</svg>
