<svg width="21" height="21" viewBox="0 0 21 21" fill="none" xmlns="http://www.w3.org/2000/svg">
<g clip-path="url(#clip0_513_851)">
<path d="M4.44495 10.5H1.10303" stroke="#BABABA" stroke-width="1.5" stroke-linecap="round" stroke-linejoin="round"/>
<path d="M19.8962 10.5H8.75537" stroke="#BABABA" stroke-width="1.5" stroke-linecap="round" stroke-linejoin="round"/>
<path d="M12.2447 17.6025H1.10303" stroke="#BABABA" stroke-width="1.5" stroke-linecap="round" stroke-linejoin="round"/>
<path d="M19.8958 17.6025H16.5547" stroke="#BABABA" stroke-width="1.5" stroke-linecap="round" stroke-linejoin="round"/>
<path d="M12.2447 3.52051H1.10303" stroke="#BABABA" stroke-width="1.5" stroke-linecap="round" stroke-linejoin="round"/>
<path d="M19.8958 3.52051H16.5547" stroke="#BABABA" stroke-width="1.5" stroke-linecap="round" stroke-linejoin="round"/>
<path d="M4.44482 10.5018C4.44482 10.7848 4.50057 11.0651 4.60887 11.3265C4.71718 11.588 4.87592 11.8256 5.07605 12.0257C5.27617 12.2258 5.51375 12.3846 5.77522 12.4929C6.03669 12.6012 6.31693 12.6569 6.59995 12.6569C6.88296 12.6569 7.16321 12.6012 7.42468 12.4929C7.68615 12.3846 7.92373 12.2258 8.12385 12.0257C8.32397 11.8256 8.48272 11.588 8.59103 11.3265C8.69933 11.0651 8.75507 10.7848 8.75507 10.5018C8.75507 10.2188 8.69933 9.93855 8.59103 9.67707C8.48272 9.4156 8.32397 9.17802 8.12385 8.9779C7.92373 8.77778 7.68615 8.61903 7.42468 8.51073C7.16321 8.40242 6.88296 8.34668 6.59995 8.34668C6.31693 8.34668 6.03669 8.40242 5.77522 8.51073C5.51375 8.61903 5.27617 8.77778 5.07605 8.9779C4.87592 9.17802 4.71718 9.4156 4.60887 9.67707C4.50057 9.93855 4.44482 10.2188 4.44482 10.5018Z" stroke="#BABABA" stroke-width="1.5"/>
<path d="M12.2446 17.6043C12.2446 18.1759 12.4717 18.7241 12.8758 19.1282C13.28 19.5324 13.8282 19.7595 14.3998 19.7595C14.9713 19.7595 15.5195 19.5324 15.9237 19.1282C16.3278 18.7241 16.5549 18.1759 16.5549 17.6043C16.5549 17.0328 16.3278 16.4846 15.9237 16.0804C15.5195 15.6763 14.9713 15.4492 14.3998 15.4492C13.8282 15.4492 13.28 15.6763 12.8758 16.0804C12.4717 16.4846 12.2446 17.0328 12.2446 17.6043Z" stroke="#BABABA" stroke-width="1.5"/>
<path d="M12.2446 3.39927C12.2446 3.97084 12.4717 4.519 12.8758 4.92317C13.28 5.32733 13.8282 5.55439 14.3998 5.55439C14.9713 5.55439 15.5195 5.32733 15.9237 4.92317C16.3278 4.519 16.5549 3.97084 16.5549 3.39927C16.5549 2.82769 16.3278 2.27953 15.9237 1.87536C15.5195 1.4712 14.9713 1.24414 14.3998 1.24414C13.8282 1.24414 13.28 1.4712 12.8758 1.87536C12.4717 2.27953 12.2446 2.82769 12.2446 3.39927Z" stroke="#BABABA" stroke-width="1.5"/>
</g>
<defs>
<clipPath id="clip0_513_851">
<rect width="21" height="21" fill="white"/>
</clipPath>
</defs>
</svg>
